<?xml version="1.0" encoding="UTF-8" standalone="no"?>
<svg
   xmlns:dc="http://purl.org/dc/elements/1.1/"
   xmlns:cc="http://creativecommons.org/ns#"
   xmlns:rdf="http://www.w3.org/1999/02/22-rdf-syntax-ns#"
   xmlns:svg="http://www.w3.org/2000/svg"
   xmlns="http://www.w3.org/2000/svg"
   viewBox="0 0 3779.5332 3779.5332"
   height="3779.5332"
   width="3779.5332"
   xml:space="preserve"
   id="svg2"
   version="1.1"><metadata
     id="metadata8"><rdf:RDF><cc:Work
         rdf:about=""><dc:format>image/svg+xml</dc:format><dc:type
           rdf:resource="http://purl.org/dc/dcmitype/StillImage" /></cc:Work></rdf:RDF></metadata><defs
     id="defs6" /><g
     transform="matrix(1.3333333,0,0,-1.3333333,0,3779.5333)"
     id="g10"><g
       transform="scale(0.1)"
       id="g12"><g
         transform="scale(1.73902)"
         id="g14"><path
           id="path16"
           style="fill:none;fill-opacity:1;fill-rule:evenodd;stroke:none"
           d="M 0,16300.3 H 16300.3 V 0 H 0 v 16300.3" /></g><g
         transform="scale(1.49187)"
         id="g18"><path
           id="path20"
           style="fill-opacity:1;fill-rule:nonzero;fill:blue"
           stroke="green"
           stroke-width="3"
           stroke-opacity="1"
           d="m 11046.2,13255.4 c 168.8,121.4 391,164 604.2,95.7 213.2,-68.3 369.2,-232.2 435.9,-429.1 -168.7,-121.4 -390.9,-164 -604.2,-95.7 -213.2,68.4 -369.2,232.2 -435.9,429.1 z m -449.7,826.7 c 155.1,164.8 383.4,256.5 625.4,227.9 241.9,-28.7 442.6,-171.2 554.8,-367.6 -155,-164.8 -383.4,-256.5 -625.4,-227.8 -241.8,28.6 -442.5,171.1 -554.8,367.5 z m -78.9,1445 c 222.4,41.4 460.9,-19.5 639.1,-185.5 178.3,-166.1 256,-399.6 230.5,-624.4 -222.4,-41.3 -460.8,19.6 -639.1,185.6 -178.2,166 -256,399.5 -230.5,624.3 z m 1490,73.9 c 206.2,-92.9 367.3,-279 419,-517.1 51.6,-238 -17.8,-474.2 -167,-644.2 -206.2,92.9 -367.3,279 -419,517.1 -51.7,238 17.8,474.1 167,644.2 z m 1510.8,656 c 121.3,-191 153.5,-435 65.9,-662.3 -87.6,-227.3 -275.4,-386.4 -493.5,-446.5 -121.3,191 -153.5,435 -65.9,662.3 87.7,227.2 275.4,386.4 493.5,446.5 z m 775.8,-1463 c -80.4,-211.5 -256.5,-383.4 -491.1,-449.2 -234.5,-65.8 -474.3,-10.7 -653.1,128.1 80.4,211.4 256.6,383.3 491.1,449.1 234.6,65.9 474.4,10.7 653.1,-128 z m -61.6,-967.1 c -56.9,-218.9 -213.2,-409 -439.3,-500 -225.9,-91 -470.3,-62.3 -663.1,56.1 56.9,218.9 213.2,409 439.2,500 225.9,91.1 470.4,62.4 663.2,-56.1 z m -771.1,-1769.3 c 101.3,-202.3 108.7,-448.3 -1.6,-665.6 -110.2,-217.2 -313.1,-356.5 -536.1,-394.2 -101.3,202.3 -108.8,448.3 1.4,665.5 110.2,217.3 313.2,356.6 536.3,394.3 z m 1172.3,608.6 c 112.7,-225.2 121,-499 -1.7,-740.8 -122.7,-241.8 -348.6,-396.8 -596.8,-438.8 -112.7,225.1 -121,498.9 1.6,740.7 122.7,241.8 348.6,396.9 596.9,438.9 z m 1653,-1164.3 c -107.8,-227.6 -318.2,-403 -584.2,-455.5 -266,-52.5 -527.4,29.7 -713.5,199.2 107.7,227.6 318.2,403 584.2,455.5 265.9,52.6 527.3,-29.6 713.5,-199.2 z m 13.2,-857 c -100.4,-212 -296.5,-375.4 -544.4,-424.3 -247.8,-49 -491.2,27.6 -664.7,185.6 100.4,212 296.5,375.4 544.3,424.3 247.8,49 491.3,-27.6 664.8,-185.6 z m -136.7,-1465.32 c -227.3,-58.25 -478.2,-11.79 -674.2,147.6 -196,159.4 -292.6,395.62 -282,630.02 227.3,58.2 478.3,11.73 674.3,-147.67 196,-159.33 292.6,-395.61 281.9,-629.95 z M 14692,9056.11 c -223.4,71.52 -411.3,244.4 -492.5,483.56 -81.2,239.23 -37.4,490.63 96.2,683.53 223.5,-71.6 411.3,-244.42 492.6,-483.58 81.2,-239.16 37.4,-490.66 -96.3,-683.51 z m -1033.7,254.58 c -198.7,63.62 -365.7,217.32 -438,430.07 -72.2,212.75 -33.3,436.34 85.6,607.94 198.7,-63.7 365.8,-217.4 438,-430.11 72.3,-212.75 33.4,-436.37 -85.6,-607.9 z m 287.7,3481.21 c -98.7,-180.1 -278.5,-312.7 -497.7,-342.5 -219,-29.9 -427.8,49.7 -571.1,196.8 98.7,180 278.5,312.6 497.7,342.4 219,29.9 427.8,-49.7 571.1,-196.7 z m -4304.65,980.3 c -58.44,-198.2 -206.85,-367.2 -415.85,-443.5 -209,-76.3 -431.34,-42.9 -603.81,71 58.45,198.2 206.86,367.1 415.86,443.4 209,76.4 431.34,42.9 603.8,-70.9 z m 309.95,929.8 c -85.86,-225.8 -273.95,-409.3 -524.31,-479.6 -250.42,-70.3 -506.48,-11.4 -697.31,136.7 85.86,225.8 273.95,409.3 524.31,479.6 250.42,70.3 506.48,11.4 697.31,-136.7 z m -32.37,1301.2 c 32.1,-224 -38.68,-459.7 -211.95,-630.9 -173.28,-171.2 -409.83,-239.2 -633.31,-204.5 -32.1,224 38.62,459.7 211.89,630.9 173.27,171.3 409.82,239.2 633.37,204.5 z m -1499.07,-9 c 167.18,-107.2 283.07,-289.7 297.28,-503.1 14.14,-213.4 -76.55,-409.5 -228.03,-538 -167.18,107.3 -283.07,289.7 -297.28,503.1 -14.21,213.4 76.55,409.6 228.03,538 z m -692.22,-655.7 c 178.57,-46.9 333.34,-174.9 407.14,-359.4 73.8,-184.6 49.88,-384 -47.12,-541 -178.57,46.8 -333.34,174.8 -407.14,359.4 -73.8,184.5 -49.87,383.9 47.12,541 z m -2412.49,-320.8 c 199.99,105.8 445.78,118.7 665.4,13.3 219.63,-105.4 363.38,-305.2 406.05,-527.3 -199.99,-105.8 -445.77,-118.7 -665.4,-13.3 -219.62,105.4 -363.38,305.2 -406.05,527.3 z m 1563.35,253 c 171.33,-68.6 309.15,-214.7 359.55,-407 50.34,-192.2 1.95,-387.1 -113.75,-531 -171.32,68.6 -309.14,214.7 -359.55,407 -50.4,192.3 -1.94,387.2 113.75,531 z M 5780.67,13764.3 c 115.49,189 315.91,322.7 553.48,343.8 237.54,21.1 458.42,-75.2 605.42,-240.8 -115.43,-189 -315.9,-322.8 -553.46,-343.9 -237.54,-21.1 -458.42,75.2 -605.44,240.9 z m 855.39,-631.6 c 118.51,-151.3 304.71,-246.4 511.57,-240.7 206.85,5.6 387.57,110.8 497.63,268.4 -118.51,151.3 -304.72,246.4 -511.57,240.7 -206.86,-5.6 -387.57,-110.8 -497.63,-268.4 z m -2132.98,1372.9 c -39.05,-188.1 8.52,-391.8 146.38,-546.1 137.87,-154.3 334.85,-224.4 526.24,-206.8 39.04,188.2 -8.52,391.9 -146.41,546.2 -137.86,154.3 -334.84,224.4 -526.21,206.7 z m -65.05,-1041.2 c 3.73,-192.2 95.34,-380.2 264.06,-500 168.69,-119.8 376.33,-144.4 559.02,-84.7 -3.74,192.2 -95.35,380.1 -264.08,499.9 -168.69,119.9 -376.32,144.5 -559,84.8 z m -213.83,-845.2 c 3.73,-192.2 95.33,-380.1 264.05,-499.9 168.69,-119.9 376.33,-144.5 559.02,-84.8 -3.74,192.2 -95.35,380.2 -264.08,500 -168.69,119.8 -376.32,144.4 -558.99,84.7 z M 2700.71,11468.1 c 135.92,-135.8 332.25,-207.8 536.92,-177.2 204.65,30.6 371.34,156.9 461.57,326.6 -135.93,135.8 -332.27,207.8 -536.92,177.1 -204.65,-30.5 -371.34,-156.8 -461.57,-326.5 z m 748.17,956.3 c 3.42,-175.8 87.24,-347.8 241.63,-457.6 154.39,-109.6 344.41,-132.2 511.6,-77.5 -3.43,175.9 -87.26,347.9 -241.67,457.6 -154.37,109.6 -344.39,132.1 -511.56,77.5 z m 140.22,-1491.3 c 185.66,-49.7 391.64,-13.7 553.53,115.2 161.92,128.8 243.09,321.5 236.31,513.6 -185.65,49.6 -391.64,13.7 -553.54,-115.2 -161.89,-128.9 -243.08,-321.6 -236.3,-513.6 z m 1023.37,-25.5 c 185.65,-49.6 391.63,-13.7 553.53,115.2 161.91,128.9 243.09,321.5 236.31,513.6 -185.66,49.7 -391.64,13.8 -553.53,-115.1 -161.9,-128.9 -243.09,-321.6 -236.31,-513.7 z m 1414.6,-911.93 c -54.46,-184.26 -23.86,-391.12 100.81,-556.28 124.66,-165.16 315.18,-251.3 507.36,-249.48 54.45,184.26 23.86,391.12 -100.82,556.28 -124.66,165.16 -315.18,251.29 -507.35,249.48 z m -925.49,6.83 c -56.98,-192.83 -24.98,-409.27 105.48,-582.08 130.45,-172.87 329.8,-262.96 530.89,-261.08 56.97,192.85 24.97,409.29 -105.5,582.09 -130.44,172.87 -329.79,262.97 -530.87,261.07 z M 4048.64,9516.54 c 36.89,-197.67 163.77,-375.9 358.52,-470.55 194.75,-94.71 413.27,-84.39 591.54,8.71 -36.89,197.68 -163.76,375.91 -358.52,470.56 -194.73,94.71 -413.27,84.39 -591.54,-8.72 z M 3310.08,8432.06 c 148.06,-136.07 356.48,-202.63 569.1,-161.61 212.63,41.03 381.31,180.31 468.16,361.7 -148.06,136.07 -356.47,202.63 -569.1,161.61 -212.6,-41.02 -381.32,-180.31 -468.16,-361.7 z m 1106.37,-565.13 c 198.58,-31.7 409.09,27.95 563.67,179.58 154.58,151.69 218.27,360.95 190.48,560.17 -198.59,31.63 -409.08,-28.02 -563.67,-179.64 -154.58,-151.69 -218.28,-360.96 -190.48,-560.11 z m 949.1,-37.47 c 193.87,-53.49 409.68,-17.49 580.08,116.1 170.42,133.66 256.87,334.61 251.3,535.64 -193.87,53.42 -409.67,17.42 -580.1,-116.17 -170.4,-133.59 -256.87,-334.54 -251.28,-535.57 z m 1705.06,4555.64 c -139.82,-131.8 -217.51,-325.9 -192.98,-531.4 24.54,-205.5 145.79,-375.9 312.77,-471 139.82,131.8 217.51,325.9 192.98,531.4 -24.54,205.5 -145.8,375.8 -312.77,471 z m -722.95,621.2 c -139.85,-131.9 -217.57,-326 -193.02,-531.5 24.55,-205.5 145.79,-375.8 312.75,-471 139.83,131.9 217.56,326 193,531.4 -24.54,205.5 -145.79,375.9 -312.73,471.1 z M 8375.36,2743.75 c 399.16,2514.3 691.28,6537.45 -3956.97,5901.13 1116.09,406.27 2099.84,503 2951.18,290.18 106.98,-26.75 211.68,-58.32 314.1,-94.65 -103.29,740.75 -967.78,2469.99 -1746.73,2718.79 -854.84,273.1 -2039.55,48.8 -2182.87,69.4 623.88,155.4 1260.99,356.9 1903.57,361.7 -44.81,234.2 -514.86,1470.1 -335.52,1880.9 -20.56,-612.7 353.38,-1275.6 813.69,-1776.3 660.45,-718.5 1012.36,-810.3 1634.06,-1833.2 320.2,-526.77 624.19,-1142.04 763.67,-1869.79 403.46,645.23 462.65,2766.49 -375.83,4243.49 -625.53,1101.9 -1288.12,1633.6 -1725.69,1853.1 459.42,-83 1192.46,-562.5 1562.94,-905.3 37.27,485.1 563.92,1279.4 994.32,1492.9 -402.91,-419.8 -742.15,-1197.2 -307.2,-2242.1 420.95,-741.4 711.6,-1757 855.98,-3100.34 983.24,466.44 2649.54,1907.74 2695.44,3100.04 22,570.9 -286.8,1511.7 -799.1,1823 556.5,-155.1 991.7,-1116 1106.8,-1502.3 160.8,458.6 364.1,1342.1 489.3,1877.6 -1.6,-507.8 -52.6,-1443.5 -250.5,-2323.7 -192.3,-855.8 -542,-1401.7 -1082.8,-2063.6 242.6,71.4 1104.4,178.5 1415.2,118.3 229.3,138.3 1081.1,545.9 1767.6,446.8 -364.4,-39.5 -985.4,-270.5 -1277.7,-479.1 695.6,-58.1 1275.9,-396.5 1562.7,-699.6 -656.4,502.7 -2341.5,629.3 -3612.8,82.3 C 10733,9760.94 10029.5,8997.66 9887.62,8097.85 9623.39,6422.16 10088.4,3820.52 10380.6,2743.75 H 8375.36 v 0" /></g></g></g></svg>
